<svg xmlns="http://www.w3.org/2000/svg" id="canvas" viewBox="596.480 205.115 394.300 179.304">
    <path d="M 600.09,296.12 C 601.11 297.76, 602.64 299.14, 605.59 299.55 C 608.54 299.96, 610.79 299.06, 614.82 298.18 C 618.84 297.31, 621.08 296.57, 625.72 295.20 C 630.36 293.83, 632.84 292.75, 638.02 291.34 C 643.21 289.93, 646.27 289.21, 651.66 288.16 C 657.05 287.11, 659.84 286.64, 664.99 286.08 C 670.15 285.51, 672.79 285.29, 677.43 285.33 C 682.07 285.38, 684.72 285.73, 688.20 286.32 C 691.67 286.90, 692.97 287.62, 694.80 288.27 C 696.62 288.92, 696.98 288.58, 697.33 289.58 C 697.68 290.58, 697.67 290.79, 696.53 293.26 C 695.38 295.73, 694.69 297.73, 691.61 301.92 C 688.52 306.10, 686.01 308.81, 681.11 314.19 C 676.21 319.56, 672.87 322.91, 667.11 328.78 C 661.35 334.66, 657.83 337.93, 652.30 343.54 C 646.77 349.15, 643.67 352.10, 639.46 356.82 C 635.25 361.55, 632.96 363.36, 631.26 367.15 C 629.56 370.95, 629.58 373.00, 630.95 375.79 C 632.32 378.58, 634.38 380.27, 638.10 381.11 C 641.82 381.94, 644.45 380.94, 649.55 379.97 C 654.66 379.01, 657.73 377.85, 663.62 376.28 C 669.50 374.72, 673.01 373.54, 678.97 372.13 C 684.92 370.72, 688.21 369.95, 693.38 369.23 C 698.55 368.52, 701.11 368.98, 704.83 368.55 C 708.55 368.12, 710.07 367.83, 711.99 367.09 C 713.90 366.34, 713.95 365.71, 714.41 364.82 C 714.87 363.94, 714.89 363.49, 714.29 362.67 C 713.68 361.84, 713.46 361.09, 711.39 360.71 C 709.32 360.34, 707.75 360.36, 703.93 360.81 C 700.12 361.25, 697.57 361.86, 692.30 362.94 C 687.03 364.02, 683.64 364.83, 677.59 366.20 C 671.55 367.57, 667.93 368.58, 662.08 369.79 C 656.22 371.01, 652.95 371.67, 648.31 372.27 C 643.68 372.88, 641.47 372.58, 638.91 372.80 C 636.36 373.02, 635.92 373.92, 635.54 373.38 C 635.16 372.84, 635.41 372.72, 637.00 370.09 C 638.58 367.45, 639.74 364.87, 643.46 360.21 C 647.19 355.55, 650.23 352.39, 655.62 346.77 C 661.02 341.15, 664.56 337.87, 670.44 332.11 C 676.32 326.35, 679.74 323.14, 685.02 317.96 C 690.31 312.78, 692.99 310.50, 696.86 306.23 C 700.72 301.95, 702.80 300.41, 704.34 296.58 C 705.87 292.75, 705.68 290.33, 704.54 287.07 C 703.40 283.81, 701.73 281.99, 698.65 280.28 C 695.57 278.56, 693.41 278.84, 689.14 278.50 C 684.86 278.15, 682.25 278.29, 677.28 278.55 C 672.30 278.81, 669.61 279.14, 664.26 279.82 C 658.90 280.49, 656.06 280.93, 650.50 281.92 C 644.93 282.90, 641.75 283.63, 636.44 284.75 C 631.12 285.87, 628.52 286.72, 623.92 287.52 C 619.32 288.32, 617.16 288.49, 613.45 288.74 C 609.74 288.99, 607.97 288.25, 605.37 288.77 C 602.78 289.29, 601.53 289.89, 600.47 291.36 C 599.42 292.83, 599.07 294.49, 600.09 296.12"
          style="stroke: #eee; fill: #eee;"/>
    <path d="M 671.89,329.77 C 672.11 331.32, 672.75 332.09, 674.48 333.18 C 676.21 334.27, 677.50 335.38, 680.54 335.22 C 683.59 335.06, 685.57 333.90, 689.70 332.40 C 693.84 330.90, 695.86 329.95, 701.20 327.74 C 706.54 325.54, 709.88 324.48, 716.41 321.36 C 722.94 318.24, 726.52 316.33, 733.87 312.16 C 741.21 307.98, 745.35 305.48, 753.12 300.49 C 760.89 295.51, 765.14 292.64, 772.71 287.23 C 780.29 281.83, 784.14 279.16, 790.99 273.46 C 797.84 267.75, 801.13 264.51, 806.97 258.70 C 812.80 252.90, 815.54 249.79, 820.18 244.43 C 824.81 239.07, 826.88 236.50, 830.13 231.90 C 833.38 227.29, 835.11 225.20, 836.44 221.40 C 837.77 217.60, 837.99 215.54, 836.77 212.89 C 835.56 210.24, 833.46 208.43, 830.36 208.16 C 827.26 207.89, 825.00 208.80, 821.26 211.54 C 817.51 214.27, 815.65 216.78, 811.61 221.83 C 807.57 226.88, 805.27 230.13, 801.06 236.79 C 796.85 243.46, 794.49 247.52, 790.57 255.14 C 786.66 262.76, 784.69 267.15, 781.48 274.88 C 778.27 282.61, 776.83 286.69, 774.51 293.81 C 772.18 300.93, 771.21 304.51, 769.87 310.50 C 768.53 316.48, 768.16 319.07, 767.81 323.75 C 767.46 328.43, 767.00 330.59, 768.12 333.90 C 769.24 337.20, 770.67 338.58, 773.41 340.29 C 776.16 342.00, 778.33 342.87, 781.85 342.44 C 785.37 342.01, 787.20 340.44, 791.01 338.15 C 794.81 335.85, 796.63 333.90, 800.87 330.94 C 805.10 327.99, 807.57 326.27, 812.18 323.37 C 816.80 320.47, 819.58 318.73, 823.93 316.43 C 828.28 314.12, 831.09 313.14, 833.92 311.82 C 836.76 310.51, 837.40 310.01, 838.12 309.83 C 838.84 309.66, 838.18 309.82, 837.52 310.94 C 836.86 312.07, 835.82 312.92, 834.82 315.46 C 833.82 317.99, 833.12 320.17, 832.53 323.61 C 831.94 327.05, 831.38 329.27, 831.88 332.66 C 832.38 336.04, 833.08 337.84, 835.04 340.53 C 837.01 343.22, 838.47 344.99, 841.70 346.11 C 844.94 347.23, 847.15 347.08, 851.21 346.14 C 855.26 345.19, 857.31 343.85, 861.99 341.39 C 866.66 338.93, 869.31 337.25, 874.59 333.86 C 879.86 330.46, 882.90 328.27, 888.37 324.43 C 893.85 320.59, 896.91 318.10, 901.94 314.64 C 906.97 311.18, 910.01 309.26, 913.54 307.11 C 917.07 304.96, 918.50 304.54, 919.59 303.90 C 920.68 303.26, 919.63 302.83, 918.99 303.92 C 918.35 305.01, 917.51 306.38, 916.36 309.35 C 915.22 312.31, 914.47 314.76, 913.26 318.75 C 912.06 322.74, 911.20 325.15, 910.32 329.31 C 909.45 333.47, 908.23 335.87, 908.88 339.53 C 909.53 343.20, 910.86 345.31, 913.56 347.61 C 916.27 349.91, 918.51 350.79, 922.39 351.04 C 926.26 351.28, 928.27 350.31, 932.95 348.85 C 937.62 347.38, 940.18 346.22, 945.75 343.73 C 951.33 341.24, 955.20 339.25, 960.80 336.39 C 966.40 333.52, 969.52 331.98, 973.77 329.41 C 978.01 326.83, 980.80 325.43, 982.02 323.51 C 983.23 321.60, 982.08 319.72, 979.85 319.84 C 977.62 319.97, 975.25 321.97, 970.87 324.14 C 966.49 326.30, 963.50 327.98, 957.95 330.66 C 952.41 333.33, 948.55 335.39, 943.14 337.51 C 937.74 339.62, 935.02 340.37, 930.93 341.23 C 926.84 342.09, 925.15 341.76, 922.70 341.79 C 920.25 341.83, 919.52 342.00, 918.69 341.39 C 917.85 340.78, 918.34 340.73, 918.53 338.74 C 918.71 336.75, 918.75 334.83, 919.61 331.44 C 920.47 328.05, 921.48 325.73, 922.81 321.80 C 924.14 317.87, 925.71 315.62, 926.24 311.78 C 926.77 307.94, 926.91 305.40, 925.47 302.60 C 924.04 299.81, 922.16 298.09, 919.07 297.81 C 915.97 297.53, 914.11 298.78, 910.01 301.20 C 905.90 303.61, 903.50 306.17, 898.53 309.88 C 893.56 313.60, 890.58 316.06, 885.15 319.79 C 879.72 323.51, 876.63 325.56, 871.37 328.51 C 866.11 331.45, 863.28 332.83, 858.86 334.52 C 854.44 336.20, 852.20 336.41, 849.28 336.94 C 846.35 337.46, 845.57 337.29, 844.24 337.12 C 842.91 336.96, 842.78 337.03, 842.64 336.11 C 842.50 335.18, 843.10 334.51, 843.53 332.49 C 843.95 330.46, 844.09 328.95, 844.75 325.99 C 845.40 323.03, 846.71 321.00, 846.80 317.69 C 846.89 314.37, 846.64 312.22, 845.20 309.42 C 843.77 306.62, 842.47 304.74, 839.61 303.70 C 836.76 302.65, 834.76 302.88, 830.92 304.18 C 827.08 305.49, 824.89 307.56, 820.43 310.23 C 815.96 312.90, 813.31 314.67, 808.58 317.54 C 803.85 320.40, 801.15 321.99, 796.78 324.53 C 792.40 327.07, 790.13 328.62, 786.71 330.24 C 783.30 331.86, 781.67 331.85, 779.69 332.64 C 777.70 333.43, 777.55 334.40, 776.79 334.17 C 776.04 333.95, 776.45 333.57, 775.93 331.50 C 775.40 329.44, 774.37 327.86, 774.16 323.85 C 773.95 319.84, 773.95 317.20, 774.86 311.45 C 775.77 305.71, 776.63 302.13, 778.73 295.13 C 780.83 288.14, 782.22 284.08, 785.36 276.49 C 788.50 268.90, 790.46 264.55, 794.44 257.17 C 798.41 249.79, 800.84 245.80, 805.24 239.59 C 809.63 233.37, 812.25 230.35, 816.43 226.08 C 820.61 221.80, 823.19 220.40, 826.15 218.22 C 829.10 216.04, 830.18 215.97, 831.21 215.20 C 832.25 214.42, 831.63 213.62, 831.32 214.36 C 831.02 215.10, 830.86 215.98, 829.70 218.90 C 828.54 221.82, 828.12 224.41, 825.52 228.95 C 822.92 233.48, 820.99 236.16, 816.71 241.55 C 812.43 246.95, 809.76 250.10, 804.14 255.91 C 798.51 261.72, 795.31 264.94, 788.60 270.59 C 781.88 276.25, 778.07 278.88, 770.56 284.20 C 763.04 289.51, 758.79 292.36, 751.03 297.18 C 743.28 302.01, 739.11 304.44, 731.77 308.33 C 724.42 312.21, 720.86 313.98, 714.32 316.59 C 707.78 319.21, 704.39 320.05, 699.08 321.41 C 693.77 322.77, 691.60 323.19, 687.77 323.40 C 683.95 323.61, 682.32 322.37, 679.96 322.47 C 677.60 322.56, 677.30 323.25, 675.98 323.85 C 674.67 324.45, 674.21 324.28, 673.39 325.46 C 672.58 326.64, 671.68 328.23, 671.89 329.77"
          style="stroke: #eee; fill: #eee;"/>
    <path d="M 987.07,260.90 C 987.98 259.16, 988.07 256.97, 987.02 255.50 C 985.96 254.02, 983.80 253.15, 981.79 253.53 C 979.78 253.92, 977.81 255.60, 976.97 257.43 C 976.13 259.26, 976.49 261.34, 977.59 262.69 C 978.69 264.04, 980.57 264.54, 982.46 264.19 C 984.36 263.83, 986.16 262.63, 987.07 260.90"
          style="stroke: #eee; fill: #eee;"/>
</svg>
